<svg version="1.1" id="Layer_1" xmlns="http://www.w3.org/2000/svg" xmlns:xlink="http://www.w3.org/1999/xlink" x="0px" y="0px"
	 width="100%" viewBox="0 0 512 512" enable-background="new 0 0 512 512" xml:space="preserve">
<path fill="#000000" opacity="1.000000" stroke="none" 
	d="
M434.775543,1.378731 
	C459.653412,1.000000 484.307404,1.079753 508.959595,0.905887 
	C512.294800,0.882365 513.103943,1.448558 513.100281,4.956083 
	C512.978943,120.393951 513.000000,235.831970 513.000000,351.269958 
	C513.000000,403.741760 512.963318,456.213684 513.084167,508.685211 
	C513.092041,512.109009 512.608765,513.120483 508.818909,513.112610 
	C435.525299,512.960632 362.231262,513.000000 288.468658,513.000000 
	C286.947449,509.073273 289.954834,509.209320 292.281738,508.820282 
	C303.343842,506.970764 314.328979,504.787506 325.453613,501.413971 
	C333.963989,499.502258 341.677094,496.417816 349.317627,493.241119 
	C374.875488,482.615021 398.076691,468.253021 418.861847,449.845551 
	C428.005676,441.747711 436.098541,432.755646 444.534973,423.529419 
	C454.542847,410.479156 464.233002,397.647888 471.560059,382.782532 
	C476.261963,375.218018 479.249176,367.258148 482.446747,359.447205 
	C490.559143,339.630157 496.244232,319.045319 498.462402,297.758240 
	C502.572235,258.317322 499.106720,219.671387 484.712280,182.328171 
	C481.416382,173.777710 477.124268,165.665573 474.166748,156.986069 
	C473.631531,155.415451 472.428192,154.159348 471.327332,152.384964 
	C470.632385,148.848236 470.773438,145.679749 470.771576,142.521851 
	C470.754272,113.564728 470.859619,84.607178 470.731201,55.650608 
	C470.627869,32.353909 460.008270,15.712254 438.614410,6.149737 
	C436.620789,5.258628 434.506866,4.516581 434.775543,1.378731 
z"/>
<path fill="#000000" opacity="1.000000" stroke="none" 
	d="
M226.220245,512.640381 
	C152.372894,513.000000 78.745750,512.977356 5.118778,513.077393 
	C1.955093,513.081665 0.889130,512.791626 0.891849,509.122864 
	C1.016427,341.046600 1.016012,172.970215 0.893557,4.893951 
	C0.890910,1.259679 1.900393,0.896018 5.102358,0.916184 
	C29.421679,1.069345 53.742397,1.000000 78.531342,1.000000 
	C80.277176,4.875199 77.091629,5.345982 74.803169,6.350041 
	C60.088337,12.806169 50.159275,23.584373 45.380230,38.957474 
	C43.793903,44.060318 43.216080,49.339386 43.222038,54.703102 
	C43.254028,83.483162 43.242153,112.263283 43.233818,141.043381 
	C43.232857,144.369644 43.304543,147.698715 42.937363,151.444672 
	C29.476139,177.756241 20.267471,204.977768 16.075510,233.904160 
	C13.602819,250.966843 13.586939,268.120819 14.430497,285.186462 
	C15.745959,311.798981 22.208689,337.418365 32.627007,361.965332 
	C35.472412,368.669525 38.071167,375.506592 41.973938,382.149719 
	C48.267941,394.504639 55.858257,405.577301 63.988670,416.279602 
	C65.567413,418.357727 66.041161,421.282379 68.960983,422.779053 
	C85.279640,442.682007 104.165291,459.146912 125.506554,472.830505 
	C128.432571,474.706604 131.362518,476.573639 134.561981,478.682404 
	C150.669586,487.398804 167.055099,494.591888 183.972076,500.589172 
	C184.762665,500.869446 185.545303,501.109619 186.785507,501.152039 
	C198.740707,504.523041 210.512054,506.890106 222.364914,508.885986 
	C224.380417,509.225372 226.338333,509.640930 226.220245,512.640381 
z"/>
<path fill="#525181" opacity="1.000000" stroke="none" 
	d="
M473.207825,383.783600 
	C470.765442,391.033142 466.496521,396.767120 462.617249,402.566803 
	C457.705872,409.909515 452.846985,417.393005 446.303680,423.917389 
	C443.526886,423.907928 443.199310,422.056183 442.954681,420.195892 
	C442.671875,418.045471 442.720428,415.875397 442.720062,413.711700 
	C442.709076,350.947388 442.708618,288.183075 442.719757,225.418747 
	C442.720154,223.088196 442.716431,220.756165 443.037476,217.948837 
	C442.320923,195.636246 442.813049,173.805267 442.747131,151.977692 
	C442.648468,119.314301 442.784698,86.650291 442.690216,53.986816 
	C442.649963,40.067905 433.619293,30.896627 419.670593,30.336218 
	C416.839569,30.222479 414.005005,30.277548 411.172028,30.277487 
	C332.012604,30.275787 252.853165,30.278381 173.693741,30.270905 
	C170.029068,30.270557 166.359619,30.384848 162.245544,29.921837 
	C150.803970,21.915535 149.679276,8.952841 159.667511,1.288840 
	C251.354233,1.000000 342.708466,1.000000 434.531342,1.000000 
	C434.496613,2.798170 435.896606,2.724455 436.970490,3.080806 
	C458.946442,10.373025 473.570648,31.914623 473.137360,56.024063 
	C472.569214,87.637184 473.001221,119.268272 472.991272,151.347870 
	C474.638184,156.554352 475.312134,161.435699 475.309814,166.474640 
	C475.278595,234.168472 475.270477,301.862366 475.328705,369.556152 
	C475.332764,374.277649 474.452545,378.801300 473.207825,383.783600 
z"/>
<path fill="#42416B" opacity="1.000000" stroke="none" 
	d="
M159.531342,1.000000 
	C159.685974,1.936256 159.586548,3.032928 159.025009,3.784177 
	C152.803986,12.106958 154.434082,19.847628 160.805756,27.579397 
	C160.809280,28.112644 160.632126,28.366291 160.063385,28.867546 
	C144.418488,31.099556 129.087830,29.990877 113.791702,30.243786 
	C108.130592,30.337389 102.466629,30.238138 96.804100,30.266022 
	C80.143326,30.348066 70.464272,39.864170 70.310150,56.669624 
	C70.128387,76.487503 70.276054,96.307640 70.253296,116.126770 
	C70.249672,119.289223 70.337631,122.453827 70.052795,126.085602 
	C70.424713,134.041367 70.284546,141.533798 70.284973,149.023712 
	C70.289703,232.476425 70.289108,315.929138 70.284142,399.381836 
	C70.283936,402.878510 70.386208,406.379211 70.009628,410.368256 
	C69.843353,415.168030 71.376480,419.631226 68.326096,423.965424 
	C59.125103,414.973328 52.408340,404.222870 45.756554,393.433929 
	C44.032078,390.636902 42.560574,387.683929 40.942883,384.442566 
	C39.280869,378.967194 38.673450,373.740387 38.677631,368.359161 
	C38.729626,301.459290 38.731045,234.559357 38.672729,167.659500 
	C38.668331,162.614273 39.282948,157.715210 40.719810,152.397491 
	C40.925255,119.131165 41.097683,86.329575 40.924229,53.529808 
	C40.806000,31.172098 55.260517,10.613156 76.169434,3.341396 
	C77.186295,2.987751 78.603264,3.166501 79.035385,1.371849 
	C105.687561,1.000000 132.375122,1.000000 159.531342,1.000000 
z"/>
<path fill="#A3EA6E" opacity="1.000000" stroke="none" 
	d="
M327.287903,502.910461 
	C315.032745,507.131866 302.866608,509.924927 290.339691,510.981232 
	C289.116180,511.084442 288.063751,511.250854 287.666779,512.657349 
	C285.299988,513.000000 282.599976,513.000000 279.449982,513.000000 
	C275.595917,511.930023 272.110504,512.720520 268.333588,512.774231 
	C262.977905,513.000000 257.955811,513.000000 252.466858,513.000000 
	C249.223297,511.949890 246.320892,512.803955 243.083817,512.271729 
	C238.748962,507.769501 238.824646,504.629456 243.302246,497.662903 
	C246.065521,495.470245 248.965836,495.795319 251.760315,495.781067 
	C268.210602,495.697235 284.661316,495.806213 301.111725,495.716187 
	C306.794495,495.685089 311.575073,493.886353 314.436401,488.604401 
	C319.413818,479.416138 313.617035,468.945892 303.184723,468.345856 
	C298.540161,468.078705 293.881226,468.257935 289.228851,468.252045 
	C276.932465,468.236511 264.635925,468.284851 252.339813,468.219452 
	C249.706757,468.205444 247.001556,468.535919 244.106659,467.054016 
	C238.661911,459.621857 238.470505,455.639771 243.205475,449.449341 
	C244.890991,447.921844 246.585724,447.870514 248.244568,447.858429 
	C267.395813,447.718811 286.593109,446.914124 305.686249,448.079529 
	C327.186401,449.391876 342.412781,471.380402 334.169281,494.711914 
	C332.957245,498.142365 330.685883,500.704346 327.287903,502.910461 
z"/>
<path fill="#85D24B" opacity="1.000000" stroke="none" 
	d="
M243.743927,449.733429 
	C240.819977,455.135315 241.801117,460.116058 243.873932,465.845581 
	C241.611313,468.318604 239.073822,468.186493 236.586838,468.207886 
	C228.436966,468.277985 220.282913,468.050201 212.137558,468.304993 
	C202.715454,468.599670 197.759949,474.128296 198.309280,483.416504 
	C198.718140,490.329376 204.143616,495.267548 212.225891,495.649719 
	C220.033432,496.018921 227.858505,495.714874 235.675476,495.784363 
	C238.161392,495.806458 240.686249,495.618866 243.545654,497.476410 
	C243.102554,502.425110 240.638641,506.619537 243.007507,511.632782 
	C240.695786,513.058044 238.156647,512.194153 235.352386,512.777100 
	C232.299988,513.000000 229.599976,513.000000 226.449982,513.000000 
	C226.911301,511.061035 225.310654,511.147003 224.292160,511.058533 
	C211.475143,509.945068 199.035187,507.040161 186.451706,503.056946 
	C174.830917,495.492432 174.588150,471.024933 185.257294,460.116333 
	C187.120026,458.211884 189.211105,456.575684 191.388519,454.382080 
	C197.490479,449.879456 203.864288,447.611145 211.124115,447.727325 
	C219.729111,447.865082 228.339218,447.686371 236.945969,447.799774 
	C239.213028,447.829651 241.645081,447.460541 243.743927,449.733429 
z"/>
<path fill="#96E08A" opacity="1.000000" stroke="none" 
	d="
M235.467606,513.000000 
	C237.196716,511.083344 239.821075,512.407104 242.661469,512.036743 
	C245.850784,512.153992 248.647263,511.564606 251.671890,512.775024 
	C246.645065,513.000000 241.290146,513.000000 235.467606,513.000000 
z"/>
<path fill="#BDF0A6" opacity="1.000000" stroke="none" 
	d="
M268.458069,513.000000 
	C271.396088,511.358124 274.916962,511.930908 278.716339,512.706116 
	C275.638702,513.000000 272.277435,513.000000 268.458069,513.000000 
z"/>
<path fill="#E6F8FC" opacity="1.000000" stroke="none" 
	d="
M244.439362,450.090515 
	C232.474869,450.101532 220.977280,449.969208 209.481506,450.063019 
	C203.302795,450.113464 197.843735,452.584412 192.421967,456.047180 
	C189.183121,457.070709 186.929352,455.528107 184.674026,454.119263 
	C170.405609,445.206055 155.660828,437.211639 140.053406,430.869385 
	C137.888901,429.989777 135.960449,428.715302 133.957413,426.867004 
	C133.694107,426.201965 133.629837,425.913635 133.500412,425.173737 
	C132.666534,421.958038 132.717606,419.123199 132.717392,416.294434 
	C132.710297,322.593567 132.710114,228.892715 132.719452,135.191864 
	C132.719696,132.863113 132.671677,130.529968 133.131775,127.768829 
	C133.315323,127.037010 133.390228,126.751839 133.564957,126.048920 
	C134.604630,123.453079 136.556503,122.382812 138.579300,121.717964 
	C151.731689,117.395020 163.777603,110.453987 176.729309,105.678223 
	C194.236557,99.222649 212.339828,95.816925 230.984390,97.047722 
	C254.130478,98.575699 275.395325,106.434952 295.425354,117.894035 
	C318.761505,131.244522 339.544220,148.128601 360.418488,164.870956 
	C379.625702,180.276245 398.777344,195.719849 421.121918,206.556183 
	C426.676941,209.250183 432.367371,211.514084 438.291016,213.232849 
	C440.682800,213.926834 443.095551,214.637985 445.229553,216.696442 
	C445.452118,283.621033 445.456665,350.224426 445.469910,416.827820 
	C445.470337,418.989960 445.559448,421.152069 445.797729,423.681091 
	C444.137390,428.942139 439.937927,432.094482 436.589203,435.674896 
	C414.265686,459.542694 388.099365,478.251465 358.379822,491.849152 
	C348.495056,496.371735 338.332855,500.314117 327.355896,503.120605 
	C330.599030,496.724487 334.277710,490.359833 334.257965,482.442413 
	C334.213165,464.487640 320.711060,450.272858 302.708405,450.090057 
	C283.443115,449.894440 264.174286,450.042999 244.439362,450.090515 
z"/>
<path fill="#FF4155" opacity="1.000000" stroke="none" 
	d="
M473.284576,384.034851 
	C472.862579,382.733459 472.668518,381.245483 472.668243,379.757477 
	C472.653687,305.084167 472.655365,230.410889 472.660156,155.737595 
	C472.660248,154.740738 472.723206,153.743881 472.868134,152.275574 
	C482.013306,166.795731 487.830780,183.135834 492.978241,199.743057 
	C496.787262,212.031891 498.982147,224.694763 500.897980,237.372131 
	C502.611877,248.713013 501.863281,260.209045 502.017548,271.644745 
	C502.456299,304.165436 495.243469,335.058105 482.655365,364.885468 
	C479.922211,371.361633 476.481964,377.462830 473.284576,384.034851 
z"/>
<path fill="#FF4155" opacity="1.000000" stroke="none" 
	d="
M40.590435,152.101120 
	C40.975842,152.758682 41.117783,153.585403 41.117702,154.412109 
	C41.110390,230.656937 41.092197,306.901764 40.993813,383.614563 
	C29.400261,364.099945 22.197357,342.532715 16.939987,320.173920 
	C11.485398,296.976349 11.293088,273.421661 12.181971,249.889618 
	C12.764813,234.459595 15.775512,219.245636 19.832079,204.248108 
	C24.732065,186.132339 31.675148,168.892075 40.590435,152.101120 
z"/>
<path fill="#5DCBF7" opacity="1.000000" stroke="none" 
	d="
M134.776215,426.958923 
	C155.242889,433.954529 173.603226,444.428467 191.806000,455.967957 
	C181.023926,466.006958 176.805206,477.959961 181.333588,492.349976 
	C182.409561,495.769196 184.476471,498.876556 186.108643,502.487854 
	C167.656647,498.126709 150.638000,489.998260 133.976776,480.328094 
	C133.590073,479.032257 133.056625,478.120941 133.023163,477.127502 
	C132.497543,461.522369 132.592407,445.915558 132.970505,430.309113 
	C132.999588,429.108215 133.449997,428.043396 134.776215,426.958923 
z"/>
<path fill="#30BDF6" opacity="1.000000" stroke="none" 
	d="
M135.160675,426.548553 
	C135.142471,442.319641 135.086594,457.918976 134.988251,473.518005 
	C134.975845,475.483276 135.371460,477.513550 134.100952,479.695801 
	C125.784286,476.493561 118.739235,471.359131 111.780434,466.185852 
	C99.668106,457.181274 88.196327,447.391846 77.872040,436.342346 
	C74.431625,432.660248 71.258026,428.728882 67.930389,424.576080 
	C67.959473,420.227783 68.020607,416.214874 68.164764,411.764893 
	C69.278816,409.478210 70.962532,409.041626 72.903908,409.202393 
	C92.475388,410.822601 111.465561,415.072571 129.933380,421.734100 
	C131.920929,422.451050 133.410538,423.578522 134.699463,425.717987 
	C134.973038,426.045502 135.109985,426.376678 135.160675,426.548553 
z"/>
<path fill="#5DCBF7" opacity="1.000000" stroke="none" 
	d="
M445.576660,216.688461 
	C432.621826,215.384964 421.348602,209.641281 410.308319,203.462006 
	C390.018127,192.105560 372.234985,177.242111 354.160614,162.800034 
	C332.568115,145.546844 311.050354,128.191437 286.270813,115.504936 
	C265.960724,105.106682 244.607513,98.729248 221.614243,99.143555 
	C201.681686,99.502708 182.810196,104.588112 164.838287,113.062218 
	C155.346451,117.537796 145.811874,121.870605 135.338501,124.874390 
	C133.065613,123.875671 132.887238,122.012184 132.861420,120.171478 
	C132.751892,112.359871 132.374939,104.543236 133.292877,96.334061 
	C134.751663,93.664848 136.814804,93.680565 139.086670,93.843338 
	C145.626389,94.311920 148.606445,92.225029 149.469376,85.972229 
	C150.240295,80.386169 150.220261,74.681984 149.472977,69.091461 
	C148.727478,63.514057 145.436249,61.105549 139.817963,61.420914 
	C138.318436,61.505085 136.849182,61.758415 135.087006,60.877338 
	C132.885910,58.765446 132.927155,56.491085 133.535370,54.142365 
	C135.678146,45.867714 139.773819,38.806061 146.324310,33.188042 
	C150.066895,29.978222 154.526810,28.992144 159.578735,28.323135 
	C160.128937,28.135254 160.301208,28.082615 160.729950,27.944485 
	C163.316574,27.916513 165.646729,28.024073 167.976868,28.024317 
	C251.303894,28.033092 334.630951,28.063816 417.957916,27.992628 
	C428.710999,27.983442 437.019165,31.931631 442.459015,41.380997 
	C445.146362,46.049053 445.383484,51.180908 445.381165,56.393551 
	C445.358429,107.056366 445.362915,157.719208 445.382874,208.382034 
	C445.383911,211.041153 445.594177,213.700195 445.576660,216.688461 
z"/>
<path fill="#B8E8F9" opacity="1.000000" stroke="none" 
	d="
M134.978516,425.573792 
	C118.086151,419.804626 100.864296,414.842590 82.951187,412.586060 
	C78.337250,412.004822 73.694336,411.653687 68.656265,411.262329 
	C68.213562,389.696533 68.151627,368.065247 68.150124,346.433960 
	C68.145035,273.216644 68.161346,199.999313 68.213455,126.304382 
	C70.328415,123.951775 72.669594,124.840027 74.876358,125.316307 
	C92.522514,129.124832 110.108055,128.718826 127.657272,124.708923 
	C129.758698,124.228767 131.861252,123.521286 134.231796,125.236725 
	C134.719833,127.667854 134.977997,129.822235 134.978348,131.976654 
	C134.994400,229.685120 134.987869,327.393585 134.978516,425.573792 
z"/>
<path fill="#2FBCF6" opacity="1.000000" stroke="none" 
	d="
M134.677155,125.366837 
	C121.054741,128.975937 107.374428,130.834564 93.353500,130.111130 
	C85.045341,129.682449 76.941383,128.369339 68.611717,125.961563 
	C68.228966,101.695587 67.953377,77.561241 68.262619,53.434387 
	C68.455032,38.421719 79.660049,28.008913 94.616356,28.005192 
	C116.089409,27.999847 137.562469,28.032225 159.496094,28.118195 
	C147.604004,32.817570 139.248535,41.156151 135.804001,54.104694 
	C135.327362,55.896469 134.896179,57.649708 135.300568,59.935432 
	C137.011078,63.933865 133.990417,66.901962 134.152496,70.403351 
	C134.516617,78.268692 133.636856,86.196899 135.373520,94.367981 
	C135.140884,104.506058 135.058914,114.253891 134.971634,124.465500 
	C134.966324,124.929276 134.772369,125.220215 134.677155,125.366837 
z"/>
<path fill="#85D249" opacity="1.000000" stroke="none" 
	d="
M244.082397,465.907654 
	C263.278687,465.888763 282.429718,465.907104 301.580688,465.956573 
	C311.588806,465.982452 318.926117,472.786041 318.931580,481.981537 
	C318.937042,491.175171 311.567047,497.975861 301.465515,497.997986 
	C282.647125,498.039154 263.828644,498.030396 244.551483,498.070526 
	C244.092773,498.098633 244.005737,498.007629 243.961578,497.962738 
	C233.677734,493.074768 235.024536,471.376862 243.622849,466.335022 
	C243.944321,466.056000 244.037109,465.957764 244.082397,465.907654 
z"/>
<path fill="#60B550" opacity="1.000000" stroke="none" 
	d="
M243.481613,466.038330 
	C243.075150,470.812225 239.435684,474.424805 238.876480,479.444458 
	C238.125107,486.189178 240.683655,491.723419 243.876312,497.573059 
	C233.277817,497.943268 222.636429,498.100800 211.999146,497.956177 
	C201.831375,497.817932 195.815002,491.335266 195.958328,481.084503 
	C196.087357,471.856628 202.240829,466.060730 212.096176,466.014160 
	C222.403519,465.965485 232.711304,466.014343 243.481613,466.038330 
z"/>
<path fill="#5CCBF7" opacity="1.000000" stroke="none" 
	d="
M298.634857,183.417343 
	C314.574402,186.815948 325.851227,195.854630 332.483643,210.491013 
	C333.695312,213.164917 335.274292,214.548187 338.238037,215.246063 
	C354.171906,218.998032 363.677399,232.511978 361.977112,248.569962 
	C360.426422,263.214752 347.248352,274.730835 331.528015,274.952850 
	C316.031921,275.171692 300.533081,275.191528 284.576447,275.339355 
	C283.625763,275.496185 282.961823,275.642303 282.676178,275.327179 
	C278.662231,270.898865 273.134338,268.203735 269.029694,264.153564 
	C264.955902,260.133881 260.667664,256.206573 256.757507,251.490372 
	C254.700912,244.814499 257.101807,239.709610 261.360779,235.315430 
	C263.153625,233.465652 264.467865,231.634750 265.029694,229.043091 
	C266.681641,221.422684 270.932281,215.711365 278.363159,212.891251 
	C282.083099,211.479462 283.470947,209.184845 284.097595,205.210236 
	C285.543823,196.037750 289.664917,188.245499 298.634857,183.417343 
z"/>
<path fill="#B8E9FA" opacity="1.000000" stroke="none" 
	d="
M257.777344,251.053101 
	C262.863953,253.733688 266.768250,257.173706 269.423035,261.953461 
	C270.181213,263.318481 271.181000,264.390564 272.711243,264.771240 
	C278.206390,266.138428 281.192902,270.180420 283.859802,275.120300 
	C282.855957,288.077545 278.574097,291.953583 266.006653,292.050507 
	C248.587952,292.184814 231.189636,293.571503 213.276733,292.893127 
	C202.480713,290.820038 196.536819,285.197205 195.071213,276.092499 
	C193.481033,266.213959 197.598801,256.687653 206.500992,252.034088 
	C211.843307,249.241440 215.950668,245.941574 218.844238,240.533142 
	C221.183075,236.161530 224.684738,232.369858 230.579803,231.536392 
	C237.370987,232.648270 240.604141,237.640411 243.555161,242.537399 
	C245.629044,245.978851 247.778275,248.257889 252.026581,247.999649 
	C254.293091,247.861847 256.190796,248.884659 257.777344,251.053101 
z"/>
<path fill="#5ECCF7" opacity="1.000000" stroke="none" 
	d="
M290.079651,394.802399 
	C277.100128,365.804230 294.821075,336.306641 326.150879,334.472137 
	C333.937897,334.016174 341.341522,336.174011 348.095490,340.182892 
	C353.378265,343.318481 354.939667,347.515137 352.542908,351.752014 
	C350.185791,355.918854 345.903900,356.632812 340.405670,353.775848 
	C323.163879,344.816620 304.737640,353.502075 301.391113,372.165771 
	C299.571442,382.314117 305.107727,393.429352 314.580261,398.645721 
	C324.313202,404.005493 333.922699,402.845795 342.137634,395.320099 
	C346.154572,391.640167 350.326202,391.393982 353.682770,394.638763 
	C356.888245,397.737488 356.702972,402.279175 353.209717,406.234955 
	C340.383392,420.759552 315.091187,421.041382 299.454926,406.875031 
	C295.704865,403.477478 292.693451,399.536316 290.079651,394.802399 
z"/>
<path fill="#30BDF5" opacity="1.000000" stroke="none" 
	d="
M257.972687,250.932220 
	C249.300003,251.295654 242.451553,248.628250 238.934204,239.735764 
	C237.786926,236.835175 234.622986,234.846268 231.465881,232.980530 
	C226.904541,232.262436 222.754944,231.209351 218.608978,230.104813 
	C216.749649,229.609436 215.198273,228.873810 214.188736,226.698364 
	C213.831497,224.122421 215.083740,222.705063 216.856689,221.132538 
	C223.101990,215.508942 230.204437,213.005783 238.103943,212.944214 
	C241.895721,212.914673 244.154343,211.710861 245.674881,207.994064 
	C248.019928,202.261856 251.879532,197.385223 256.393372,193.145844 
	C258.521912,191.146729 260.702026,188.874847 264.487610,189.219376 
	C275.295135,183.634064 286.178131,180.506775 298.525269,183.113281 
	C298.538635,185.946060 296.118317,187.177231 294.468414,188.962814 
	C289.584320,194.248627 286.336426,200.279770 286.020416,207.573181 
	C285.871674,211.005753 284.543671,213.078720 281.155151,214.147247 
	C272.929108,216.741211 268.186157,222.436417 266.925812,230.993088 
	C266.650909,232.859314 266.025879,234.559952 264.418549,235.687790 
	C259.255066,239.311066 257.657928,244.465729 257.972687,250.932220 
z"/>
<path fill="#8BDAF9" opacity="1.000000" stroke="none" 
	d="
M214.353577,226.215637 
	C218.043365,228.846649 222.440826,227.765747 225.929031,229.785095 
	C227.488419,230.687851 229.121857,231.462692 230.942322,232.565491 
	C224.095764,235.197571 220.568985,240.968643 217.555573,247.152008 
	C216.658829,248.992081 215.905273,250.441116 213.642776,251.158218 
	C204.400055,254.087677 197.865494,259.890625 197.102036,270.024963 
	C196.288513,280.823700 201.266907,287.647949 212.554535,292.652222 
	C203.485489,292.912415 194.174393,293.031189 184.863815,292.999542 
	C173.879807,292.962219 165.517136,285.990021 163.353271,275.228394 
	C161.453171,265.778442 167.296524,255.590851 177.327606,252.058975 
	C181.134995,250.718430 183.426468,248.802246 184.996124,245.163071 
	C187.068314,240.358704 190.653656,236.607224 195.066864,233.206238 
	C196.291794,229.053253 199.678406,228.239746 202.810608,227.195175 
	C206.444275,225.983322 210.161621,225.221802 214.353577,226.215637 
z"/>
<path fill="#FEE402" opacity="1.000000" stroke="none" 
	d="
M264.591827,189.002655 
	C256.453918,195.172363 249.838943,202.616745 246.208267,212.399506 
	C245.162064,215.218475 243.175964,215.454193 240.684448,215.293839 
	C232.603668,214.773819 225.347580,217.025146 218.614471,222.089417 
	C215.419983,222.781036 213.974869,220.995911 212.970932,218.794754 
	C207.799744,207.456680 207.126785,195.940475 211.743195,184.236420 
	C212.503082,182.309860 214.018600,181.032257 215.696686,179.300995 
	C232.841156,171.054245 251.087585,174.761124 264.591827,189.002655 
z"/>
<path fill="#B9E9FA" opacity="1.000000" stroke="none" 
	d="
M249.030167,403.219604 
	C251.017273,410.907318 247.905441,414.884735 239.938034,414.939697 
	C224.138779,415.048767 208.338287,414.975433 192.538300,414.976257 
	C183.557251,414.976715 174.575912,415.019226 165.595276,414.959076 
	C159.074631,414.915436 155.901703,412.174255 155.966797,406.842499 
	C156.028717,401.771851 159.182892,399.046783 165.391357,399.035858 
	C190.504944,398.991699 215.618652,399.031982 240.732285,399.002991 
	C244.103699,398.999084 246.977356,399.827637 249.030167,403.219604 
z"/>
<path fill="#B8E9FA" opacity="1.000000" stroke="none" 
	d="
M247.652786,373.266083 
	C251.945404,380.428986 249.015717,385.992950 241.216354,386.010529 
	C215.737900,386.068024 190.259216,386.053162 164.780685,386.018219 
	C158.483780,386.009583 155.941116,383.734497 155.974335,378.442291 
	C156.007355,373.181305 158.525772,371.008392 164.923279,371.000214 
	C190.068756,370.968018 215.214310,370.995148 240.359818,370.974854 
	C242.914444,370.972778 245.358780,371.185364 247.652786,373.266083 
z"/>
<path fill="#5ECCF7" opacity="1.000000" stroke="none" 
	d="
M253.856537,335.707275 
	C250.333679,321.748993 257.023346,309.995117 269.677368,307.283722 
	C281.661407,304.715881 293.015198,312.532166 295.388672,324.984100 
	C297.227539,334.631287 291.368744,344.802643 281.831635,348.520233 
	C272.351288,352.215698 261.507111,348.687744 256.037781,340.077606 
	C255.240677,338.822723 254.669418,337.424408 253.856537,335.707275 
z"/>
<path fill="#8CDBF9" opacity="1.000000" stroke="none" 
	d="
M185.000015,358.006653 
	C177.856598,358.003937 171.211807,358.082611 164.570145,357.972748 
	C159.222092,357.884308 155.492111,354.517700 155.500397,350.062042 
	C155.508316,345.803406 158.928268,342.333771 164.196426,342.255402 
	C178.310135,342.045349 192.430954,342.041931 206.544693,342.248016 
	C211.829880,342.325195 215.029694,345.747650 214.974197,350.210602 
	C214.915283,354.949341 211.577469,357.906342 205.928314,357.980865 
	C199.119949,358.070709 192.309525,358.005005 185.000015,358.006653 
z"/>
<path fill="#FDCB02" opacity="1.000000" stroke="none" 
	d="
M215.651886,179.018250 
	C214.498611,183.698883 212.427628,188.311859 211.597931,193.138214 
	C209.837906,203.376114 211.338745,213.160706 217.982208,221.996185 
	C217.205688,223.385956 216.121338,224.578049 214.859863,226.103073 
	C208.436356,228.566650 201.526611,228.703064 195.585419,232.804718 
	C187.718155,209.274948 195.039047,189.575165 215.651886,179.018250 
z"/>
<path fill="#FEE406" opacity="1.000000" stroke="none" 
	d="
M225.985077,145.106934 
	C226.012955,142.502289 225.757797,140.311386 227.003494,138.344727 
	C229.311432,134.701080 232.694946,133.530457 236.484985,135.185547 
	C242.752289,137.922424 240.776550,143.814835 241.055420,148.765305 
	C241.272659,152.621765 239.923843,155.646912 236.103638,157.098953 
	C231.580322,158.818207 226.801636,155.963562 226.096268,151.048172 
	C225.838226,149.249802 226.009506,147.389832 225.985077,145.106934 
z"/>
<path fill="#FDCB05" opacity="1.000000" stroke="none" 
	d="
M180.329987,173.796432 
	C178.666641,172.130798 177.193405,170.783630 175.885483,169.291580 
	C172.797653,165.769089 172.738770,161.546036 175.638260,158.568527 
	C178.661240,155.464203 182.689056,155.366028 186.318527,158.450043 
	C187.954910,159.840515 189.435837,161.421951 190.923828,162.977493 
	C194.735184,166.961838 195.240494,171.153625 192.354156,174.415756 
	C189.235077,177.940872 185.326767,177.819000 180.329987,173.796432 
z"/>
<path fill="#FCCB07" opacity="1.000000" stroke="none" 
	d="
M155.520157,222.795502 
	C151.919556,220.232620 150.976562,216.999588 152.377930,213.395218 
	C153.732681,209.910751 156.717117,208.642700 160.389786,208.791534 
	C162.869293,208.891998 165.365173,208.703476 167.835632,208.887283 
	C172.111771,209.205475 174.563354,211.797684 174.820999,215.903473 
	C175.083603,220.088242 172.674332,223.072922 168.616226,223.636978 
	C164.420517,224.220169 160.044968,224.670410 155.520157,222.795502 
z"/>
<path fill="#FFE405" opacity="1.000000" stroke="none" 
	d="
M288.253601,172.283371 
	C286.912170,173.563095 285.948914,174.772995 284.718079,175.569138 
	C281.199951,177.844772 277.724152,177.632172 274.853180,174.490585 
	C272.161377,171.545029 272.030670,168.118423 274.432037,164.971039 
	C276.127991,162.748169 278.228119,160.807678 280.292664,158.897705 
	C284.074249,155.399323 288.134583,155.297745 291.333374,158.465790 
	C294.447571,161.550110 294.316010,165.769577 290.955200,169.549057 
	C290.185455,170.414688 289.327118,171.201508 288.253601,172.283371 
z"/>
<path fill="#B7E9FA" opacity="1.000000" stroke="none" 
	d="
M170.995239,49.924053 
	C177.893097,50.928829 180.845398,54.008179 180.953552,60.446983 
	C181.098541,69.079437 181.095627,77.717918 180.951996,86.350418 
	C180.855621,92.141861 176.260696,96.752388 170.991379,96.747116 
	C165.710358,96.741829 161.135193,92.135292 161.043137,86.345642 
	C160.905899,77.712921 160.905640,69.074844 161.039810,60.442039 
	C161.139557,54.024849 164.105011,50.919441 170.995239,49.924053 
z"/>
<path fill="#B6E8FA" opacity="1.000000" stroke="none" 
	d="
M405.337219,67.651268 
	C410.957092,75.250687 407.856354,83.671112 398.984009,84.535370 
	C391.732971,85.241707 384.331787,85.035553 377.044769,84.537544 
	C371.615875,84.166527 367.808136,79.232857 368.068390,74.298798 
	C368.362457,68.724335 372.270599,65.009636 378.275757,64.899948 
	C384.934967,64.778320 391.598328,64.900696 398.259491,64.856102 
	C400.870605,64.838623 403.215210,65.378151 405.337219,67.651268 
z"/>
<path fill="#B6E8FA" opacity="1.000000" stroke="none" 
	d="
M135.564789,94.880592 
	C132.574799,91.968201 131.579544,88.654816 131.703690,84.822906 
	C131.858337,80.049713 131.850449,75.264427 131.706024,70.490616 
	C131.595566,66.839752 132.533096,63.667603 135.193954,60.665173 
	C146.128479,56.805771 151.775726,60.780651 151.864151,71.988922 
	C151.896790,76.127480 151.961899,80.269295 151.843994,84.404831 
	C151.556015,94.504997 145.289047,98.639870 135.564789,94.880592 
z"/>
<path fill="#B5E8FA" opacity="1.000000" stroke="none" 
	d="
M102.540726,88.995300 
	C102.331772,85.460197 101.947617,82.292725 102.234177,79.187141 
	C102.742096,73.682602 107.448967,69.773308 112.757927,70.018082 
	C117.950676,70.257484 121.761467,74.204895 122.072319,79.767662 
	C122.183113,81.750275 122.155128,83.744850 122.102173,85.731613 
	C121.945358,91.614433 118.906586,95.500984 113.759621,96.476303 
	C109.109894,97.357407 105.181900,94.848213 102.540726,88.995300 
z"/>
<path fill="#FFF340" opacity="1.000000" stroke="none" 
	d="
M226.288712,200.509369 
	C224.459167,194.904312 226.213928,190.712463 230.630630,189.353653 
	C234.825302,188.063141 239.261536,190.332596 240.598969,194.453201 
	C242.029953,198.862045 239.694626,203.020325 234.973480,204.456314 
	C231.133331,205.624298 228.681030,203.521393 226.288712,200.509369 
z"/>
<path fill="#FFF340" opacity="1.000000" stroke="none" 
	d="
M248.026764,187.722748 
	C248.797333,190.651978 247.435074,191.872574 245.045441,191.624924 
	C243.232803,191.437088 242.672287,189.742645 243.242264,188.198517 
	C244.228851,185.525696 245.979431,185.763824 248.026764,187.722748 
z"/>
<path fill="#E1F6FC" opacity="1.000000" stroke="none" 
	d="
M271.249390,323.247314 
	C274.595184,321.830597 277.164856,322.452148 279.007690,325.153137 
	C280.448212,327.264435 280.439819,329.556824 278.986511,331.701813 
	C277.373169,334.082977 274.986206,334.623138 272.376038,333.947876 
	C267.567871,332.704041 266.933624,327.887390 271.249390,323.247314 
z"/>
</svg>